<!-- Recovery Point favicon — solid monochrome, transparent background.
     Mario's spec: "todo de un color sin fondo". All glyphs (R + dot + plus)
     in cobalt-800 (#1F2D5A). Browser tab tile uses the page's theme-color
     for the chrome around the icon. -->
<svg xmlns="http://www.w3.org/2000/svg" viewBox="180 70 760 700" fill="#1F2D5A">
  <path transform="matrix(1,0,0,-1,362.2617,673.27737)" d="M0 0V0C-59.174 0-107.144 47.97-107.144 107.144V428.405C-107.144 487.579-59.174 535.548 0 535.548 59.173 535.548 107.143 487.579 107.143 428.405V107.144C107.143 47.97 59.173 0 0 0"/>
  <path transform="matrix(1,0,0,-1,716.2705,246.90723)" d="M0 0C0-60.297-48.88-109.178-109.178-109.178-169.475-109.178-218.355-60.297-218.355 0-218.355 60.297-169.475 109.178-109.178 109.178-48.88 109.178 0 60.297 0 0"/>
  <path transform="matrix(1,0,0,-1,891.0098,406.5337)" d="M0 0H-43.198V41.167C-43.198 58.654-57.374 72.831-74.861 72.831-92.348 72.831-106.523 58.654-106.523 41.167V0H-149.722C-167.208 0-181.385-14.176-181.385-31.663-181.385-49.15-167.208-63.326-149.722-63.326H-106.523V-108.554C-106.523-126.041-92.348-140.217-74.861-140.217-57.374-140.217-43.198-126.041-43.198-108.554V-63.326H0C17.486-63.326 31.663-49.15 31.663-31.663 31.663-14.176 17.486 0 0 0"/>
</svg>
