<svg xmlns="http://www.w3.org/2000/svg" xmlns:xlink="http://www.w3.org/1999/xlink" xmlns:inkscape="http://www.inkscape.org/namespaces/inkscape" version="1.1" width="1080" height="1080" viewBox="0 0 1080 1080">
<defs>
<clipPath id="clip_1">
<path transform="matrix(1,0,0,-1,0,1080)" d="M0 1080H1080V0H0Z"/>
</clipPath>
</defs>
<g inkscape:groupmode="layer" inkscape:label="Layer 1">
<g clip-path="url(#clip_1)">
<path transform="matrix(1,0,0,-1,362.2617,673.27737)" d="M0 0V0C-59.174 0-107.144 47.97-107.144 107.144V428.405C-107.144 487.579-59.174 535.548 0 535.548 59.173 535.548 107.143 487.579 107.143 428.405V107.144C107.143 47.97 59.173 0 0 0" fill="#485aa8"/>
<path transform="matrix(1,0,0,-1,716.2705,246.90723)" d="M0 0C0-60.297-48.88-109.178-109.178-109.178-169.475-109.178-218.355-60.297-218.355 0-218.355 60.297-169.475 109.178-109.178 109.178-48.88 109.178 0 60.297 0 0" fill="#283c80"/>
<path transform="matrix(1,0,0,-1,891.0098,406.5337)" d="M0 0H-43.198V41.167C-43.198 58.654-57.374 72.831-74.861 72.831-92.348 72.831-106.523 58.654-106.523 41.167V0H-149.722C-167.208 0-181.385-14.176-181.385-31.663-181.385-49.15-167.208-63.326-149.722-63.326H-106.523V-108.554C-106.523-126.041-92.348-140.217-74.861-140.217-57.374-140.217-43.198-126.041-43.198-108.554V-63.326H0C17.486-63.326 31.663-49.15 31.663-31.663 31.663-14.176 17.486 0 0 0" fill="#485aa8"/>
<path transform="matrix(1,0,0,-1,138.1118,787.47268)" d="M0 0V-30.839H21.745C25.786-30.839 29.212-29.346 32.025-26.357 34.836-23.372 36.242-19.725 36.242-15.419 36.242-11.115 34.836-7.469 32.025-4.48 29.212-1.494 25.786 0 21.745 0ZM37.428-78.02 17.938-44.413H0V-78.02H-15.156V14.233H21.745C30.003 14.233 37.01 11.355 42.766 5.602 48.52-.154 51.398-7.161 51.398-15.419 51.398-21.307 49.706-26.687 46.324-31.563 42.941-36.439 38.526-39.978 33.079-42.173L54.034-78.02Z" fill="#485aa8"/>
<path transform="matrix(1,0,0,-1,210.4653,827.00979)" d="M0 0H38.747C37.779 5.358 35.561 9.4 32.091 12.125 28.619 14.848 24.557 16.211 19.9 16.211 14.629 16.211 10.234 14.761 6.722 11.861 3.207 8.962 .966 5.009 0 0M.132-11.598C1.186-16.605 3.602-20.45 7.38-23.129 11.157-25.81 15.77-27.148 21.218-27.148 28.774-27.148 34.441-24.426 38.219-18.978L49.949-25.83C43.446-35.408 33.825-40.195 21.086-40.195 10.366-40.195 1.713-36.924-4.876-30.377-11.466-23.833-14.76-15.551-14.76-5.535-14.76 4.304-11.511 12.541-5.008 19.176 1.493 25.809 9.839 29.126 20.032 29.126 29.696 29.126 37.626 25.743 43.82 18.979 50.015 12.212 53.112 3.997 53.112-5.667 53.112-7.161 52.935-9.139 52.584-11.598Z" fill="#485aa8"/>
<path transform="matrix(1,0,0,-1,306.8037,867.2051)" d="M0 0C-9.93 0-18.209 3.338-24.842 10.016-31.477 16.691-34.792 24.908-34.792 34.66-34.792 44.499-31.477 52.736-24.842 59.371-18.209 66.004-9.93 69.321 0 69.321 6.413 69.321 12.256 67.783 17.528 64.709 22.8 61.632 26.753 57.504 29.389 52.32L17.133 45.204C15.638 48.367 13.377 50.848 10.346 52.649 7.314 54.449 3.822 55.352-.132 55.352-5.931 55.352-10.786 53.375-14.694 49.421-18.605 45.468-20.559 40.546-20.559 34.66-20.559 28.773-18.605 23.854-14.694 19.9-10.786 15.946-5.931 13.97-.132 13.97 3.733 13.97 7.226 14.892 10.346 16.737 13.463 18.582 15.815 21.041 17.396 24.117L29.653 17.133C26.84 11.86 22.8 7.687 17.528 4.612 12.256 1.538 6.413 0 0 0" fill="#485aa8"/>
<path transform="matrix(1,0,0,-1,362.1562,847.4365)" d="M0 0C3.954-3.954 8.83-5.931 14.629-5.931 20.428-5.931 25.304-3.954 29.258 0 33.211 3.953 35.188 8.916 35.188 14.892 35.188 20.866 33.211 25.83 29.258 29.784 25.304 33.738 20.428 35.715 14.629 35.715 8.83 35.715 3.954 33.738 0 29.784-3.954 25.83-5.93 20.866-5.93 14.892-5.93 8.916-3.954 3.953 0 0M14.629-19.769C4.963-19.769-3.251-16.431-10.016-9.753-16.782-3.077-20.164 5.14-20.164 14.892-20.164 24.645-16.782 32.858-10.016 39.537-3.251 46.213 4.963 49.553 14.629 49.553 24.381 49.553 32.618 46.213 39.34 39.537 46.061 32.858 49.422 24.645 49.422 14.892 49.422 5.14 46.061-3.077 39.34-9.753 32.618-16.431 24.381-19.769 14.629-19.769" fill="#485aa8"/>
<path transform="matrix(1,0,0,-1,466.5352,799.5967)" d="M0 0H15.551L-10.148-65.896H-26.622L-52.321 0H-36.77L-18.315-50.225Z" fill="#485aa8"/>
<path transform="matrix(1,0,0,-1,499.4829,827.00979)" d="M0 0H38.747C37.779 5.358 35.561 9.4 32.091 12.125 28.619 14.848 24.557 16.211 19.9 16.211 14.629 16.211 10.234 14.761 6.722 11.861 3.207 8.962 .966 5.009 0 0M.132-11.598C1.186-16.605 3.602-20.45 7.38-23.129 11.157-25.81 15.77-27.148 21.218-27.148 28.774-27.148 34.441-24.426 38.219-18.978L49.949-25.83C43.445-35.408 33.825-40.195 21.086-40.195 10.366-40.195 1.713-36.924-4.876-30.377-11.466-23.833-14.76-15.551-14.76-5.535-14.76 4.304-11.511 12.541-5.008 19.176 1.493 25.809 9.839 29.126 20.032 29.126 29.696 29.126 37.626 25.743 43.82 18.979 50.015 12.212 53.111 3.997 53.111-5.667 53.111-7.161 52.935-9.139 52.585-11.598Z" fill="#485aa8"/>
<path transform="matrix(1,0,0,-1,579.3457,810.667)" d="M0 0C3.602 8.171 10.366 12.256 20.296 12.256V-3.163C14.847-2.813 10.103-4.108 6.062-7.051 2.021-9.996 0-14.85 0-21.614V-54.825H-14.233V11.07H0Z" fill="#485aa8"/>
<path transform="matrix(1,0,0,-1,655.915,799.5967)" d="M0 0H15.156L-10.147-68.004C-16.474-85.049-27.193-93.131-42.305-92.254V-78.942C-37.823-79.206-34.222-78.261-31.497-76.109-28.775-73.955-26.535-70.595-24.776-66.027L-24.117-64.709-52.057 0H-36.506L-16.856-47.834Z" fill="#485aa8"/>
<path transform="matrix(1,0,0,-1,747.5078,823.71487)" d="M0 0C6.326 0 11.531 2.063 15.617 6.194 19.702 10.323 21.745 15.552 21.745 21.877 21.745 28.29 19.702 33.562 15.617 37.692 11.531 41.821 6.326 43.887 0 43.887H-24.382V0ZM0 50.476C8.258 50.476 15.11 47.752 20.56 42.305 26.006 36.856 28.73 30.049 28.73 21.877 28.73 13.706 26.006 6.919 20.56 1.516 15.11-3.888 8.258-6.589 0-6.589H-24.382V-41.777H-31.366V50.476Z" fill="#485aa8"/>
<path transform="matrix(1,0,0,-1,797.2578,852.4453)" d="M0 0C5.403-5.448 12.014-8.171 19.835-8.171 27.653-8.171 34.243-5.448 39.604 0 44.961 5.447 47.643 12.08 47.643 19.9 47.643 27.72 44.961 34.353 39.604 39.801 34.243 45.248 27.653 47.972 19.835 47.972 12.014 47.972 5.403 45.248 0 39.801-5.403 34.353-8.104 27.72-8.104 19.9-8.104 12.08-5.403 5.447 0 0M19.835-14.496C10.169-14.496 1.978-11.182-4.744-4.547-11.466 2.086-14.826 10.234-14.826 19.9-14.826 29.564-11.466 37.713-4.744 44.348 1.978 50.98 10.169 54.298 19.835 54.298 29.41 54.298 37.561 50.98 44.282 44.348 51.003 37.713 54.364 29.564 54.364 19.9 54.364 10.234 51.003 2.086 44.282-4.547 37.561-11.182 29.41-14.496 19.835-14.496" fill="#485aa8"/>
<path transform="matrix(1,0,0,-1,0,1080)" d="M867.436 280.403H874.026V214.50702H867.436ZM874.421 297.865C873.366 296.854 872.135 296.35 870.73 296.35 869.324 296.35 868.095 296.854 867.041 297.865 865.986 298.874 865.459 300.126 865.459 301.621 865.459 303.025 865.986 304.234 867.041 305.245 868.095 306.255 869.324 306.761 870.73 306.761 872.135 306.761 873.366 306.255 874.421 305.245 875.476 304.234 876.002 303.025 876.002 301.621 876.002 300.126 875.476 298.874 874.421 297.865" fill="#485aa8"/>
<path transform="matrix(1,0,0,-1,924.501,798.14749)" d="M0 0C7.818 0 14.035-2.395 18.648-7.183 23.261-11.972 25.567-18.364 25.567-26.357V-67.345H18.846V-26.357C18.846-20.209 17.153-15.333 13.771-11.729 10.389-8.128 5.621-6.326-.527-6.326-7.294-6.326-12.829-8.566-17.133-13.047-21.438-17.528-23.591-24.031-23.591-32.552V-67.345H-30.181V-1.449H-23.591V-13.97C-18.847-4.658-10.984 0 0 0" fill="#485aa8"/>
<path transform="matrix(1,0,0,-1,1002.3877,806.0547)" d="M0 0H-19.637V-42.832C-19.637-46.61-18.935-49.335-17.527-51.003-16.123-52.673-13.97-53.618-11.07-53.836-8.171-54.057-4.48-53.947 0-53.507V-59.438C-8.875-60.756-15.485-60.14-19.834-57.593-24.183-55.045-26.357-50.126-26.357-42.832V0H-40.854V6.458H-26.357V22.932L-19.637 24.908V6.458H0Z" fill="#485aa8"/>
</g>
</g>
</svg>
